<svg width="144" height="92" fill="none" xmlns="http://www.w3.org/2000/svg"><path d="M65 26C65 12.745 75.745 2 89 2h24c13.255 0 24 10.745 24 24v24H89c-13.255 0-24-10.745-24-24z" fill="#FAD2CF"/><path d="M11 66c0-13.255 10.745-24 24-24h48c13.255 0 24 10.745 24 24S96.255 90 83 90H11V66z" fill="#DADCE0"/><path d="M89.67 64.854c-2.775-2.472-6.315-2.472-9.09 0C76.414 68.6 74.818 69 73.5 69c-1.388 0-2.984-.399-7.08-4.146-2.775-2.472-6.315-2.472-9.09 0C53.164 68.6 51.568 69 50.25 69s-2.984-.399-7.08-4.146c-2.775-2.472-6.315-2.472-9.09 0C29.914 68.6 28.318 69 27 69" stroke="#5F6368"/><path d="M85.305 13.544a7.64 7.64 0 0111.004 0l4.61 4.755 4.809-4.96a7.64 7.64 0 0111.004 0c3.024 3.119 3.024 8.232 0 11.35L100.919 41 85.305 24.894c-3.073-3.17-3.073-8.231 0-11.35z" fill="#EA4335"/></svg>